<svg xmlns="http://www.w3.org/2000/svg" viewBox="0 0 800 560">
<defs>
<linearGradient id="g" x1="0" x2="1">
<stop offset="0%" stop-color="#fff6d8"/>
<stop offset="100%" stop-color="#e6f0ff"/>
</linearGradient>
</defs>
<rect width="800" height="560" fill="url(#g)"/>
<rect x="110" y="180" width="580" height="260" rx="18" fill="#fff" stroke="#203a5e" stroke-width="6"/>
<rect x="90" y="150" width="620" height="60" rx="16" fill="#ffcc4d"/>
<text x="400" y="190" font-size="40" font-family="Arial, sans-serif" text-anchor="middle" fill="#203a5e" font-weight="700">TERATWXT</text>
<rect x="165" y="245" width="120" height="95" rx="10" fill="#dcecff" stroke="#203a5e" stroke-width="4"/>
<rect x="340" y="245" width="120" height="95" rx="10" fill="#dcecff" stroke="#203a5e" stroke-width="4"/>
<rect x="515" y="245" width="120" height="95" rx="10" fill="#dcecff" stroke="#203a5e" stroke-width="4"/>
<rect x="340" y="350" width="120" height="90" rx="10" fill="#8c5d3d"/>
<rect x="360" y="365" width="80" height="75" rx="8" fill="#b07d57"/>
<circle cx="425" cy="405" r="4" fill="#203a5e"/>
<path d="M140 150c20-50 65-78 120-78 70 0 112 50 140 50 24 0 48-18 72-18 54 0 90 46 118 46 29 0 50-14 70-36" fill="none" stroke="#203a5e" stroke-width="6" stroke-linecap="round"/>
<circle cx="200" cy="115" r="26" fill="#ff7b54"/>
<circle cx="320" cy="92" r="20" fill="#5ec8b7"/>
<circle cx="540" cy="110" r="24" fill="#7f8cff"/>
</svg>