<svg xmlns="http://www.w3.org/2000/svg" viewBox="0 0 600 420">
<rect width="600" height="420" rx="24" fill="#ecfff6"/>
<circle cx="170" cy="210" r="74" fill="#ffb703" stroke="#264653" stroke-width="6"/>
<path d="M110 210h120M170 150v120M125 165c25 20 65 20 90 0M125 255c25-20 65-20 90 0" stroke="#264653" stroke-width="5" fill="none"/>
<circle cx="320" cy="180" r="60" fill="#ffffff" stroke="#264653" stroke-width="6"/>
<polygon points="320,133 337,164 372,171 348,196 352,231 320,216 288,231 292,196 268,171 303,164" fill="#2a9d8f"/>
<rect x="400" y="122" width="92" height="145" rx="16" fill="#8ecae6" stroke="#264653" stroke-width="6"/>
<circle cx="446" cy="165" r="20" fill="#fb8500"/>
<line x1="446" y1="185" x2="446" y2="228" stroke="#264653" stroke-width="6"/>
<line x1="420" y1="208" x2="472" y2="208" stroke="#264653" stroke-width="6"/>
<text x="300" y="358" font-size="30" text-anchor="middle" font-family="Arial, sans-serif" fill="#264653" font-weight="700">Sports & Daily Necessities</text>
</svg>